<svg version="1.1" id="Layer_1" xmlns="http://www.w3.org/2000/svg" xmlns:xlink="http://www.w3.org/1999/xlink" x="0px" y="0px"
	 width="100%" viewBox="0 0 500 500" enable-background="new 0 0 500 500" xml:space="preserve">
<path fill="#FFFFFF" opacity="1.000000" stroke="none" 
	d="
M331.000000,501.000000 
	C220.666687,501.000000 110.833389,501.000000 1.000059,501.000000 
	C1.000039,334.333405 1.000039,167.666794 1.000020,1.000148 
	C167.666565,1.000099 334.333130,1.000099 500.999756,1.000049 
	C500.999847,167.666519 500.999847,334.333038 500.999939,500.999786 
	C444.500000,501.000000 388.000000,501.000000 331.000000,501.000000 
M292.159027,363.261047 
	C289.123566,365.881256 285.726044,366.778656 282.015442,364.978394 
	C278.165375,363.110413 277.511780,359.536926 277.517090,355.708313 
	C277.526062,349.266541 277.519531,342.824768 277.519531,336.140839 
	C274.977631,336.140839 273.054718,336.140839 271.188202,336.140839 
	C271.188202,344.841095 270.468933,353.340363 271.423340,361.647369 
	C272.143829,367.918427 277.056946,371.692535 283.566833,372.385010 
	C289.476685,373.013672 294.842865,371.970551 298.719177,365.771637 
	C303.465729,356.131531 299.903595,346.003540 301.232452,335.576019 
	C298.529266,335.784363 296.633514,335.930450 294.209015,336.117310 
	C294.209015,340.884613 294.397430,345.326996 294.155884,349.745911 
	C293.915558,354.141754 293.243378,358.513977 292.159027,363.261047 
M245.553177,312.069641 
	C267.825806,313.087524 288.728119,308.504211 308.275269,297.494812 
	C334.898529,282.500000 353.359436,260.718964 363.298218,231.913528 
	C368.954468,215.520172 366.880127,200.649551 352.508881,189.094894 
	C338.181641,177.575607 314.633209,178.096024 304.212158,194.859146 
	C297.668823,205.384705 292.615906,216.846268 287.036407,227.959244 
	C279.568542,242.833328 271.729034,257.469788 260.623596,270.039032 
	C249.116013,283.063385 235.317764,292.628418 217.484009,293.002319 
	C207.110229,293.219818 196.678375,290.688141 186.273666,289.385345 
	C184.800842,289.200928 183.333817,288.970093 180.652313,288.588165 
	C195.074890,301.331146 223.461578,311.494965 245.553177,312.069641 
M146.493378,191.998672 
	C138.046738,200.509308 134.337982,210.836670 136.737793,222.506912 
	C139.785675,237.328796 145.547974,251.367264 155.850464,262.584229 
	C173.093719,281.358032 195.030106,289.566101 220.413544,287.364502 
	C230.256531,286.510803 239.037476,282.119995 246.570435,275.574615 
	C243.799118,272.400208 241.202072,269.597565 238.795471,266.639984 
	C226.179276,251.135345 217.884735,233.153641 209.234238,215.343658 
	C205.331085,207.307739 201.649445,198.803360 196.031311,192.035660 
	C183.961578,177.496277 162.539230,177.743530 146.493378,191.998672 
M204.516907,142.840042 
	C207.008896,137.021439 207.011215,131.164673 206.216873,124.854790 
	C203.857391,106.111839 185.878723,95.836395 169.128067,98.579758 
	C155.930542,100.741196 147.429581,108.779823 143.303726,121.487953 
	C140.420639,130.368164 141.532043,139.377075 146.005829,146.874542 
	C151.924484,156.793411 161.662781,162.554703 173.536972,162.885117 
	C187.852493,163.283478 198.191772,156.682251 204.516907,142.840042 
M350.483887,107.975311 
	C347.839996,105.892601 345.397034,103.464584 342.516541,101.788483 
	C331.558380,95.412140 313.926971,96.822243 305.738800,105.886368 
	C301.412231,110.675751 298.510468,117.278938 296.546722,123.557777 
	C293.255249,134.081833 295.832855,144.048752 303.339722,152.171722 
	C307.762970,156.957962 313.265320,159.667038 319.958649,161.709412 
	C335.812927,166.547180 352.640808,156.693161 357.621674,143.754395 
	C362.445038,131.224808 361.479126,118.686401 350.483887,107.975311 
M339.331177,350.283508 
	C339.331177,352.341644 339.331177,354.399780 339.331177,357.682434 
	C330.619293,349.579926 322.940186,342.437958 314.381958,334.478363 
	C314.381958,347.706696 314.381958,359.558990 314.381958,371.596985 
	C316.541748,371.596985 318.544647,371.596985 321.021606,371.596985 
	C321.021606,364.595123 321.021606,358.029572 321.021606,350.333557 
	C329.502350,358.237732 337.163696,365.378174 345.870361,373.492920 
	C346.141113,370.344635 346.385498,368.778595 346.392334,367.211487 
	C346.430084,358.553009 346.428528,349.894226 346.403015,341.235657 
	C346.386017,335.467773 346.052429,335.243866 339.331451,336.607910 
	C339.331451,340.765717 339.331451,345.053925 339.331177,350.283508 
M184.742523,335.662354 
	C173.320648,334.247040 164.713013,340.295013 162.891724,351.015350 
	C161.181702,361.080719 167.600204,370.259949 177.831833,372.381500 
	C187.390045,374.363403 197.343170,368.063080 199.630386,358.583038 
	C202.165344,348.076172 196.379730,338.740540 184.742523,335.662354 
M236.949295,342.516327 
	C234.359146,340.396606 232.000885,336.939667 229.129501,336.441711 
	C223.532639,335.471130 217.648499,336.157166 211.335022,336.157166 
	C211.335022,347.554321 211.271164,358.505646 211.457550,369.452698 
	C211.472305,370.318451 213.198135,371.850983 214.173767,371.888000 
	C219.324936,372.083496 224.523605,372.240936 229.641525,371.746429 
	C234.444000,371.282410 237.924896,368.507416 239.452011,363.688263 
	C240.782425,359.489838 239.119278,356.225555 236.240753,353.351929 
	C235.600433,352.712708 234.848679,352.185120 235.149826,352.434052 
	C235.919327,348.749756 236.496735,345.985229 236.949295,342.516327 
M137.255844,364.118103 
	C135.500687,364.905548 133.745529,365.692993 131.901245,366.520447 
	C135.054367,371.661469 138.397949,373.284271 143.093231,372.470123 
	C147.846161,371.645905 151.428680,368.995148 151.657135,364.143768 
	C152.090775,354.935120 151.782684,345.691589 151.782684,336.233215 
	C149.453156,336.233215 147.559692,336.233215 145.065781,336.233215 
	C145.065781,344.595886 145.167358,352.678864 145.028427,360.757721 
	C144.942322,365.765686 142.652283,366.881439 137.255844,364.118103 
M360.668243,336.175415 
	C360.347900,337.900848 359.765594,339.623993 359.750427,341.352081 
	C359.662262,351.413147 359.707245,361.475372 359.707245,371.713623 
	C362.155212,371.713623 363.883850,371.713623 365.806274,371.713623 
	C365.806274,359.738586 365.806274,348.066498 365.806274,336.178711 
	C364.164764,336.083191 362.870026,336.007843 360.668243,336.175415 
M240.440933,392.471710 
	C240.440933,394.319061 240.440933,396.166412 240.440933,398.013763 
	C240.770050,398.323853 241.099167,398.633942 241.428284,398.944031 
	C243.595337,393.181793 245.932755,396.960907 248.192291,398.265381 
	C248.435776,395.142426 249.664474,391.858643 248.568680,389.831360 
	C247.531036,387.911652 244.055084,387.309845 240.798309,385.709076 
	C240.613068,388.736481 240.525452,390.168274 240.440933,392.471710 
M173.931061,393.391541 
	C174.033936,394.916962 174.136795,396.442413 174.239670,397.967834 
	C176.933273,392.433105 179.433334,397.565002 181.666458,397.990570 
	C181.853455,394.880981 183.045639,391.521606 181.885193,389.539917 
	C180.809311,387.702576 177.219482,387.337402 173.952988,386.004181 
	C173.952988,389.203918 173.952988,390.834259 173.931061,393.391541 
M279.081329,390.937286 
	C278.468750,394.336243 279.589508,397.062500 282.999573,397.827606 
	C284.542236,398.173706 286.570984,397.157806 288.078308,396.256561 
	C288.428223,396.047424 287.549561,393.783356 287.236206,392.464844 
	C285.900238,393.419769 284.564270,394.374695 282.702850,395.705231 
	C282.256836,394.622284 280.941437,392.317047 281.262146,392.060974 
	C283.153534,390.550781 285.425629,389.517426 287.398743,388.418610 
	C284.082184,386.086090 282.913025,386.295135 279.081329,390.937286 
M350.976440,394.685547 
	C351.425842,388.096497 348.901031,386.153015 341.794006,387.676056 
	C341.794006,391.061859 341.794006,394.451172 341.794006,399.348236 
	C345.320679,397.758667 347.987244,396.556763 350.976440,394.685547 
M156.909714,388.749237 
	C156.449951,388.221222 155.990204,387.693176 155.254669,386.848450 
	C153.616592,390.771729 152.178528,394.216003 150.842575,397.415710 
	C154.500015,397.415710 157.545532,397.415710 160.697464,397.415710 
	C159.537796,394.815338 158.336487,392.121613 156.909714,388.749237 
M130.865799,388.108429 
	C127.834488,391.148193 127.662766,394.294525 131.040665,397.039246 
	C133.189667,398.785370 135.538223,398.654572 136.929489,397.397644 
	C134.570251,395.520538 132.764145,394.083527 130.958023,392.646515 
	C132.906128,391.170319 134.854218,389.694122 137.411880,387.756042 
	C135.451965,387.756042 133.489716,387.756042 130.865799,388.108429 
M301.872650,393.705109 
	C302.388214,397.601166 304.827911,398.821106 308.256927,397.740997 
	C311.398071,396.751556 312.049255,391.654663 309.372437,387.134369 
	C308.934235,388.961975 309.277069,390.901978 308.819733,392.630219 
	C308.487091,393.887115 307.097229,394.864227 306.178711,395.966095 
	C305.445374,394.871033 304.376190,393.864716 304.057922,392.660004 
	C303.588074,390.881348 303.652374,388.961548 303.489197,387.101868 
	C302.942688,387.137939 302.396179,387.174042 301.849670,387.210144 
	C301.849670,389.112823 301.849670,391.015503 301.872650,393.705109 
M372.847046,388.550598 
	C370.340851,387.884705 367.834686,387.218811 364.799835,386.412445 
	C364.799835,389.243805 364.799866,390.885345 364.799866,392.526886 
	C364.799866,394.290405 364.799835,396.053925 364.799835,398.181641 
	C367.901428,397.997131 370.445007,397.845795 372.988586,397.694458 
	C372.991974,397.260010 372.995392,396.825531 372.998810,396.391052 
	C371.026367,396.150604 369.053955,395.910156 366.938477,395.652283 
	C367.041809,393.312561 367.132568,391.257385 367.231873,389.009308 
	C369.134125,389.009308 370.618561,389.009308 372.847046,388.550598 
M221.428894,393.970490 
	C222.716583,393.842468 224.004257,393.714447 226.594101,393.456940 
	C223.455612,392.122070 221.745697,391.394806 220.035767,390.667542 
	C221.858337,389.848633 223.680908,389.029694 225.070129,388.405457 
	C217.550797,387.585052 217.622345,386.206940 218.469513,398.063141 
	C220.979431,397.933197 223.479248,397.803802 225.979080,397.674377 
	C225.969009,397.207825 225.958954,396.741241 225.948883,396.274658 
	C224.405884,396.184204 222.840729,396.208557 221.336334,395.918121 
	C220.984787,395.850250 220.839294,394.714935 221.428894,393.970490 
M198.125153,389.592926 
	C199.980972,389.285156 201.836792,388.977386 203.692596,388.669617 
	C203.677551,388.501434 203.662491,388.333221 203.647430,388.165039 
	C201.153229,388.165039 198.659027,388.165039 196.179962,388.165039 
	C195.593658,398.878845 195.689041,398.994568 204.707779,397.148041 
	C201.756393,396.335693 199.825226,395.804138 197.894043,395.272583 
	C197.936447,394.983734 197.978836,394.694916 198.021225,394.406067 
	C199.806854,394.060944 201.592468,393.715820 204.002090,393.250061 
	C201.389740,392.018341 199.712021,391.227264 198.125153,389.592926 
z"/>
<path fill="#51D2DC" opacity="1.000000" stroke="none" 
	d="
M245.063675,312.061066 
	C223.461578,311.494965 195.074890,301.331146 180.652313,288.588165 
	C183.333817,288.970093 184.800842,289.200928 186.273666,289.385345 
	C196.678375,290.688141 207.110229,293.219818 217.484009,293.002319 
	C235.317764,292.628418 249.116013,283.063385 260.623596,270.039032 
	C271.729034,257.469788 279.568542,242.833328 287.036407,227.959244 
	C292.615906,216.846268 297.668823,205.384705 304.212158,194.859146 
	C314.633209,178.096024 338.181641,177.575607 352.508881,189.094894 
	C366.880127,200.649551 368.954468,215.520172 363.298218,231.913528 
	C353.359436,260.718964 334.898529,282.500000 308.275269,297.494812 
	C288.728119,308.504211 267.825806,313.087524 245.063675,312.061066 
z"/>
<path fill="#29668A" opacity="1.000000" stroke="none" 
	d="
M146.742615,191.742157 
	C162.539230,177.743530 183.961578,177.496277 196.031311,192.035660 
	C201.649445,198.803360 205.331085,207.307739 209.234238,215.343658 
	C217.884735,233.153641 226.179276,251.135345 238.795471,266.639984 
	C241.202072,269.597565 243.799118,272.400208 246.570435,275.574615 
	C239.037476,282.119995 230.256531,286.510803 220.413544,287.364502 
	C195.030106,289.566101 173.093719,281.358032 155.850464,262.584229 
	C145.547974,251.367264 139.785675,237.328796 136.737793,222.506912 
	C134.337982,210.836670 138.046738,200.509308 146.742615,191.742157 
z"/>
<path fill="#FCE1B3" opacity="1.000000" stroke="none" 
	d="
M204.350281,143.190903 
	C198.191772,156.682251 187.852493,163.283478 173.536972,162.885117 
	C161.662781,162.554703 151.924484,156.793411 146.005829,146.874542 
	C141.532043,139.377075 140.420639,130.368164 143.303726,121.487953 
	C147.429581,108.779823 155.930542,100.741196 169.128067,98.579758 
	C185.878723,95.836395 203.857391,106.111839 206.216873,124.854790 
	C207.011215,131.164673 207.008896,137.021439 204.350281,143.190903 
z"/>
<path fill="#FCE1B2" opacity="1.000000" stroke="none" 
	d="
M350.742523,108.232773 
	C361.479126,118.686401 362.445038,131.224808 357.621674,143.754395 
	C352.640808,156.693161 335.812927,166.547180 319.958649,161.709412 
	C313.265320,159.667038 307.762970,156.957962 303.339722,152.171722 
	C295.832855,144.048752 293.255249,134.081833 296.546722,123.557777 
	C298.510468,117.278938 301.412231,110.675751 305.738800,105.886368 
	C313.926971,96.822243 331.558380,95.412140 342.516541,101.788483 
	C345.397034,103.464584 347.839996,105.892601 350.742523,108.232773 
z"/>
<path fill="#5691BF" opacity="1.000000" stroke="none" 
	d="
M339.331299,349.812805 
	C339.331451,345.053925 339.331451,340.765717 339.331451,336.607910 
	C346.052429,335.243866 346.386017,335.467773 346.403015,341.235657 
	C346.428528,349.894226 346.430084,358.553009 346.392334,367.211487 
	C346.385498,368.778595 346.141113,370.344635 345.870361,373.492920 
	C337.163696,365.378174 329.502350,358.237732 321.021606,350.333557 
	C321.021606,358.029572 321.021606,364.595123 321.021606,371.596985 
	C318.544647,371.596985 316.541748,371.596985 314.381958,371.596985 
	C314.381958,359.558990 314.381958,347.706696 314.381958,334.478363 
	C322.940186,342.437958 330.619293,349.579926 339.331177,357.682434 
	C339.331177,354.399780 339.331177,352.341644 339.331299,349.812805 
z"/>
<path fill="#5992BF" opacity="1.000000" stroke="none" 
	d="
M185.141418,335.754852 
	C196.379730,338.740540 202.165344,348.076172 199.630386,358.583038 
	C197.343170,368.063080 187.390045,374.363403 177.831833,372.381500 
	C167.600204,370.259949 161.181702,361.080719 162.891724,351.015350 
	C164.713013,340.295013 173.320648,334.247040 185.141418,335.754852 
M169.976456,357.384125 
	C172.869934,364.439819 178.532593,367.250549 185.438950,365.059143 
	C191.266312,363.210144 194.585846,356.741882 192.848099,350.622070 
	C191.199234,344.815277 184.761597,340.996490 178.811203,342.295471 
	C172.286743,343.719696 168.806549,349.283539 169.976456,357.384125 
z"/>
<path fill="#5790BE" opacity="1.000000" stroke="none" 
	d="
M237.011719,342.868530 
	C236.496735,345.985229 235.919327,348.749756 235.149826,352.434052 
	C234.848679,352.185120 235.600433,352.712708 236.240753,353.351929 
	C239.119278,356.225555 240.782425,359.489838 239.452011,363.688263 
	C237.924896,368.507416 234.444000,371.282410 229.641525,371.746429 
	C224.523605,372.240936 219.324936,372.083496 214.173767,371.888000 
	C213.198135,371.850983 211.472305,370.318451 211.457550,369.452698 
	C211.271164,358.505646 211.335022,347.554321 211.335022,336.157166 
	C217.648499,336.157166 223.532639,335.471130 229.129501,336.441711 
	C232.000885,336.939667 234.359146,340.396606 237.011719,342.868530 
M219.894135,355.218292 
	C219.100937,358.564819 218.307755,361.911346 217.364014,365.893036 
	C221.786301,365.893036 225.077972,366.542358 227.903839,365.674622 
	C229.933380,365.051422 232.553040,362.475403 232.664932,360.634155 
	C232.765228,358.983032 230.103516,356.455292 228.105728,355.579926 
	C226.006317,354.659973 223.248169,355.243378 219.894135,355.218292 
M225.112732,349.948181 
	C227.891983,349.827637 230.911591,349.438110 230.793121,345.928040 
	C230.667542,342.207245 227.557388,341.888611 224.552795,341.960388 
	C222.618851,342.006622 220.682877,341.969086 218.489563,341.969086 
	C218.489563,344.885925 218.489563,347.244019 218.489563,349.951630 
	C220.638046,349.951630 222.438141,349.951630 225.112732,349.948181 
z"/>
<path fill="#5790BE" opacity="1.000000" stroke="none" 
	d="
M298.125824,366.214905 
	C294.842865,371.970551 289.476685,373.013672 283.566833,372.385010 
	C277.056946,371.692535 272.143829,367.918427 271.423340,361.647369 
	C270.468933,353.340363 271.188202,344.841095 271.188202,336.140839 
	C273.054718,336.140839 274.977631,336.140839 277.519531,336.140839 
	C277.519531,342.824768 277.526062,349.266541 277.517090,355.708313 
	C277.511780,359.536926 278.165375,363.110413 282.015442,364.978394 
	C285.726044,366.778656 289.123566,365.881256 292.803772,363.141235 
	C295.007599,364.085938 296.566711,365.150421 298.125824,366.214905 
z"/>
<path fill="#5992BF" opacity="1.000000" stroke="none" 
	d="
M137.582733,364.320618 
	C142.652283,366.881439 144.942322,365.765686 145.028427,360.757721 
	C145.167358,352.678864 145.065781,344.595886 145.065781,336.233215 
	C147.559692,336.233215 149.453156,336.233215 151.782684,336.233215 
	C151.782684,345.691589 152.090775,354.935120 151.657135,364.143768 
	C151.428680,368.995148 147.846161,371.645905 143.093231,372.470123 
	C138.397949,373.284271 135.054367,371.661469 131.901245,366.520447 
	C133.745529,365.692993 135.500687,364.905548 137.582733,364.320618 
z"/>
<path fill="#4E8EBD" opacity="1.000000" stroke="none" 
	d="
M361.121765,336.053955 
	C362.870026,336.007843 364.164764,336.083191 365.806274,336.178711 
	C365.806274,348.066498 365.806274,359.738586 365.806274,371.713623 
	C363.883850,371.713623 362.155212,371.713623 359.707245,371.713623 
	C359.707245,361.475372 359.662262,351.413147 359.750427,341.352081 
	C359.765594,339.623993 360.347900,337.900848 361.121765,336.053955 
z"/>
<path fill="#5992BF" opacity="1.000000" stroke="none" 
	d="
M298.422485,365.993286 
	C296.566711,365.150421 295.007599,364.085938 293.104553,362.959015 
	C293.243378,358.513977 293.915558,354.141754 294.155884,349.745911 
	C294.397430,345.326996 294.209015,340.884613 294.209015,336.117310 
	C296.633514,335.930450 298.529266,335.784363 301.232452,335.576019 
	C299.903595,346.003540 303.465729,356.131531 298.422485,365.993286 
z"/>
<path fill="#323232" opacity="1.000000" stroke="none" 
	d="
M240.439392,392.035889 
	C240.525452,390.168274 240.613068,388.736481 240.798309,385.709076 
	C244.055084,387.309845 247.531036,387.911652 248.568680,389.831360 
	C249.664474,391.858643 248.435776,395.142426 248.192291,398.265381 
	C245.932755,396.960907 243.595337,393.181793 241.428284,398.944031 
	C241.099167,398.633942 240.770050,398.323853 240.440933,398.013763 
	C240.440933,396.166412 240.440933,394.319061 240.439392,392.035889 
z"/>
<path fill="#272727" opacity="1.000000" stroke="none" 
	d="
M173.942017,392.928101 
	C173.952988,390.834259 173.952988,389.203918 173.952988,386.004181 
	C177.219482,387.337402 180.809311,387.702576 181.885193,389.539917 
	C183.045639,391.521606 181.853455,394.880981 181.666458,397.990570 
	C179.433334,397.565002 176.933273,392.433105 174.239670,397.967834 
	C174.136795,396.442413 174.033936,394.916962 173.942017,392.928101 
z"/>
<path fill="#272727" opacity="1.000000" stroke="none" 
	d="
M279.234558,390.569946 
	C282.913025,386.295135 284.082184,386.086090 287.398743,388.418610 
	C285.425629,389.517426 283.153534,390.550781 281.262146,392.060974 
	C280.941437,392.317047 282.256836,394.622284 282.702850,395.705231 
	C284.564270,394.374695 285.900238,393.419769 287.236206,392.464844 
	C287.549561,393.783356 288.428223,396.047424 288.078308,396.256561 
	C286.570984,397.157806 284.542236,398.173706 282.999573,397.827606 
	C279.589508,397.062500 278.468750,394.336243 279.234558,390.569946 
M285.491241,394.980682 
	C285.414520,395.206421 285.337830,395.432129 285.261108,395.657867 
	C285.497253,395.580658 285.733368,395.503479 285.491241,394.980682 
z"/>
<path fill="#272727" opacity="1.000000" stroke="none" 
	d="
M350.815125,395.020203 
	C347.987244,396.556763 345.320679,397.758667 341.794006,399.348236 
	C341.794006,394.451172 341.794006,391.061859 341.794006,387.676056 
	C348.901031,386.153015 351.425842,388.096497 350.815125,395.020203 
M346.870575,395.791046 
	C347.552338,394.318909 349.087189,392.536072 348.693695,391.455536 
	C348.231720,390.187073 346.094147,389.528839 344.683319,388.605927 
	C344.352814,388.946747 344.022308,389.287567 343.691772,389.628418 
	C344.933319,391.594910 341.190704,395.025787 346.870575,395.791046 
z"/>
<path fill="#272727" opacity="1.000000" stroke="none" 
	d="
M157.022461,389.088562 
	C158.336487,392.121613 159.537796,394.815338 160.697464,397.415710 
	C157.545532,397.415710 154.500015,397.415710 150.842575,397.415710 
	C152.178528,394.216003 153.616592,390.771729 155.254669,386.848450 
	C155.990204,387.693176 156.449951,388.221222 157.022461,389.088562 
z"/>
<path fill="#272727" opacity="1.000000" stroke="none" 
	d="
M131.196625,387.932251 
	C133.489716,387.756042 135.451965,387.756042 137.411880,387.756042 
	C134.854218,389.694122 132.906128,391.170319 130.958038,392.646515 
	C132.764145,394.083527 134.570251,395.520538 136.929489,397.397644 
	C135.538223,398.654572 133.189667,398.785370 131.040665,397.039246 
	C127.662766,394.294525 127.834488,391.148193 131.196625,387.932251 
z"/>
<path fill="#1A1A1A" opacity="1.000000" stroke="none" 
	d="
M301.861145,393.311646 
	C301.849670,391.015503 301.849670,389.112823 301.849670,387.210144 
	C302.396179,387.174042 302.942688,387.137939 303.489197,387.101868 
	C303.652374,388.961548 303.588074,390.881348 304.057922,392.660004 
	C304.376190,393.864716 305.445374,394.871033 306.178711,395.966095 
	C307.097229,394.864227 308.487091,393.887115 308.819733,392.630219 
	C309.277069,390.901978 308.934235,388.961975 309.372437,387.134369 
	C312.049255,391.654663 311.398071,396.751556 308.256927,397.740997 
	C304.827911,398.821106 302.388214,397.601166 301.861145,393.311646 
z"/>
<path fill="#1A1A1A" opacity="1.000000" stroke="none" 
	d="
M372.475037,388.779968 
	C370.618561,389.009308 369.134125,389.009308 367.231873,389.009308 
	C367.132568,391.257385 367.041809,393.312561 366.938477,395.652283 
	C369.053955,395.910156 371.026367,396.150604 372.998810,396.391052 
	C372.995392,396.825531 372.991974,397.260010 372.988586,397.694458 
	C370.445007,397.845795 367.901428,397.997131 364.799835,398.181641 
	C364.799835,396.053925 364.799866,394.290405 364.799866,392.526886 
	C364.799866,390.885345 364.799835,389.243805 364.799835,386.412445 
	C367.834686,387.218811 370.340851,387.884705 372.475037,388.779968 
z"/>
<path fill="#0A0A0A" opacity="1.000000" stroke="none" 
	d="
M221.013947,394.020630 
	C220.839294,394.714935 220.984787,395.850250 221.336334,395.918121 
	C222.840729,396.208557 224.405884,396.184204 225.948883,396.274658 
	C225.958954,396.741241 225.969009,397.207825 225.979080,397.674377 
	C223.479248,397.803802 220.979431,397.933197 218.469513,398.063141 
	C217.622345,386.206940 217.550797,387.585052 225.070129,388.405457 
	C223.680908,389.029694 221.858337,389.848633 220.035767,390.667542 
	C221.745697,391.394806 223.455612,392.122070 226.594101,393.456940 
	C224.004257,393.714447 222.716583,393.842468 221.013947,394.020630 
z"/>
<path fill="#0A0A0A" opacity="1.000000" stroke="none" 
	d="
M198.079742,390.014587 
	C199.712021,391.227264 201.389740,392.018341 204.002090,393.250061 
	C201.592468,393.715820 199.806854,394.060944 198.021225,394.406067 
	C197.978836,394.694916 197.936447,394.983734 197.894043,395.272583 
	C199.825226,395.804138 201.756393,396.335693 204.707779,397.148041 
	C195.689041,398.994568 195.593658,398.878845 196.179962,388.165039 
	C198.659027,388.165039 201.153229,388.165039 203.647430,388.165039 
	C203.662491,388.333221 203.677551,388.501434 203.692596,388.669617 
	C201.836792,388.977386 199.980972,389.285156 198.079742,390.014587 
z"/>
<path fill="#F7FBFC" opacity="1.000000" stroke="none" 
	d="
M169.911621,357.005554 
	C168.806549,349.283539 172.286743,343.719696 178.811203,342.295471 
	C184.761597,340.996490 191.199234,344.815277 192.848099,350.622070 
	C194.585846,356.741882 191.266312,363.210144 185.438950,365.059143 
	C178.532593,367.250549 172.869934,364.439819 169.911621,357.005554 
z"/>
<path fill="#F0F7FA" opacity="1.000000" stroke="none" 
	d="
M220.335999,355.194092 
	C223.248169,355.243378 226.006317,354.659973 228.105728,355.579926 
	C230.103516,356.455292 232.765228,358.983032 232.664932,360.634155 
	C232.553040,362.475403 229.933380,365.051422 227.903839,365.674622 
	C225.077972,366.542358 221.786301,365.893036 217.364014,365.893036 
	C218.307755,361.911346 219.100937,358.564819 220.335999,355.194092 
z"/>
<path fill="#F0F7FA" opacity="1.000000" stroke="none" 
	d="
M224.675476,349.949890 
	C222.438141,349.951630 220.638046,349.951630 218.489563,349.951630 
	C218.489563,347.244019 218.489563,344.885925 218.489563,341.969086 
	C220.682877,341.969086 222.618851,342.006622 224.552795,341.960388 
	C227.557388,341.888611 230.667542,342.207245 230.793121,345.928040 
	C230.911591,349.438110 227.891983,349.827637 224.675476,349.949890 
z"/>
<path fill="#FFFFFF" opacity="1.000000" stroke="none" 
	d="
M285.730377,395.203491 
	C285.733368,395.503479 285.497253,395.580658 285.261108,395.657867 
	C285.337830,395.432129 285.414520,395.206421 285.730377,395.203491 
z"/>
<path fill="#F0F7FA" opacity="1.000000" stroke="none" 
	d="
M346.445679,395.864502 
	C341.190704,395.025787 344.933319,391.594910 343.691772,389.628418 
	C344.022308,389.287567 344.352814,388.946747 344.683319,388.605927 
	C346.094147,389.528839 348.231720,390.187073 348.693695,391.455536 
	C349.087189,392.536072 347.552338,394.318909 346.445679,395.864502 
z"/>
</svg>